<svg id="Слой_1" data-name="Слой 1" xmlns="http://www.w3.org/2000/svg" viewBox="0 0 126.23 127.32"><defs><style>.cls-1{fill:#fff;}</style></defs><title>audio</title><path class="cls-1" d="M367,362.28c-2.85-1-4.14-2.8-4-6,0.22-6.66.2-13.33,0-20-0.12-4.14,1.7-5.75,5.67-5.63,3.79,0.12,7.58,0,12,0,0-10.9.06-21.19,0-31.49-0.08-11.95,3.87-22.3,12.54-30.51,12.54-11.88,27.44-15.07,43.44-9,16.21,6.13,25.39,18.52,26.55,36,0.62,9.46.2,19,.24,28.49,0,2,0,3.93,0,6.54,4.54,0,8.49,0,12.44,0,3.48,0,5.23,1.43,5.17,5.09-0.1,7,.25,14-0.21,21-0.13,1.92-2.46,3.7-3.77,5.54H367Zm89.18-31.92c0-11.66.33-22.94-.08-34.2-0.6-16.94-14.41-30.86-31.18-32-17.89-1.24-34.39,10.42-36.44,27.7-1.49,12.58-.29,25.47-0.29,38.53h68Zm17.45,7.74H370.36v16.28H473.63V338.1Z" transform="translate(-358.9 -234.96)"/><path class="cls-1" d="M381.25,252.46c2.05,2.41,4.84,5.51,7.35,8.83,0.32,0.42-.56,2.38-1.35,2.84-1,.56-2.86.85-3.56,0.28a41.45,41.45,0,0,1-7-6.93C375,255.31,377.11,252.23,381.25,252.46Z" transform="translate(-358.9 -234.96)"/><path class="cls-1" d="M459.48,266c-1.78-1.39-3.18-2-3.62-3a4.12,4.12,0,0,1,.27-3.57,42.12,42.12,0,0,1,6.3-6.28A3.9,3.9,0,0,1,466,253c0.93,0.52,2.07,2.65,1.76,3.07C465.27,259.4,462.47,262.49,459.48,266Z" transform="translate(-358.9 -234.96)"/><path class="cls-1" d="M425.54,242.35c0,0.83.31,1.85-.06,2.45-1.07,1.71-2.42,3.24-3.66,4.84-1.12-1.55-2.66-3-3.25-4.7a8.74,8.74,0,0,1,0-5.38c0.61-1.71,2.19-3.07,3.35-4.59a38.94,38.94,0,0,1,3.52,4.45c0.44,0.73.07,1.94,0.07,2.94h0Z" transform="translate(-358.9 -234.96)"/><path class="cls-1" d="M364.45,301.8a4.85,4.85,0,0,1-2.7-.25c-1.25-.68-2.85-2.13-2.86-3.25a4.45,4.45,0,0,1,2.78-3.26,16,16,0,0,1,7.36-.13c1.63,0.41,2.88,2.34,4.3,3.59a27.67,27.67,0,0,1-4.25,3.22C368.18,302.18,366.82,301.8,364.45,301.8Z" transform="translate(-358.9 -234.96)"/><path class="cls-1" d="M477.94,294.61c1.72,0.12,3.37-.14,4.63.45s2.49,2,2.55,3-1.27,3.11-2.18,3.22a41,41,0,0,1-9.84,0c-0.93-.11-2.31-2.07-2.28-3.15a4.46,4.46,0,0,1,2.46-3.11C474.71,294.48,476.52,294.72,477.94,294.61Z" transform="translate(-358.9 -234.96)"/><path class="cls-1" d="M448.61,243.24c-1.38,3.23-2.16,6.05-3.73,8.32-0.75,1.09-3.11,1.7-4.53,1.43-0.78-.15-1.77-2.74-1.51-4a21.12,21.12,0,0,1,3-7.31,5.29,5.29,0,0,1,4.37-1.82C447.23,240,447.92,242.19,448.61,243.24Z" transform="translate(-358.9 -234.96)"/><path class="cls-1" d="M470,282.26c-1-.83-2.56-1.46-2.82-2.43-0.33-1.21,0-3.49.74-3.93a40.54,40.54,0,0,1,9.14-3.75c0.95-.26,3,1,3.4,2s-0.2,3.29-1.08,3.81A88.84,88.84,0,0,1,470,282.26Z" transform="translate(-358.9 -234.96)"/><path class="cls-1" d="M395.27,243c0.81-1.11,1.48-3,2.48-3.15,1.28-.25,3.51.39,4.13,1.39a30.31,30.31,0,0,1,3.39,8.23c0.27,1-.78,3.27-1.67,3.54-1.25.38-3.65-.08-4.24-1C397.7,249.38,396.72,246.33,395.27,243Z" transform="translate(-358.9 -234.96)"/><path class="cls-1" d="M379.09,280.11c-1.42.51-3.07,1.74-4.22,1.39a72.27,72.27,0,0,1-11.16-4.61c-0.42-.21.24-2.58,0.42-3.95a0.49,0.49,0,0,1,.34-0.32,96.07,96.07,0,0,1,9.81,2.18c1.32,0.42,2.29,2,3.41,3Z" transform="translate(-358.9 -234.96)"/></svg>