<svg id="Слой_1" data-name="Слой 1" xmlns="http://www.w3.org/2000/svg" viewBox="0 0 112.05 96.06"><defs><style>.cls-1{fill:#fff;}</style></defs><title>camera</title><path class="cls-1" d="M441.85,258.49H374.29v39.79h5.18q26,0,52,0c3,0,6.23-.05,6.36,3.79,0.15,4.24-3.28,4.24-6.43,4.23q-25.75,0-51.49,0h-5.64v7.63H442c0-9.55-.12-19.16,0-28.75,0.26-16.45-2.72-12,12.49-18.88,5.46-2.45,11-4.79,16.52-7.07,4.52-1.86,6.89-.48,6.92,4.25q0.15,22.75,0,45.49c0,4.81-2.48,6.35-6.75,4.35-4.67-2.19-9.23-4.61-13.86-6.9-2.51-1.24-4.32-3-2.82-5.88s3.89-2.57,6.42-1.25c2.75,1.43,5.57,2.75,8.81,4.34V268.52c-6.23,2.65-12.22,5-18,7.82-1,.48-1.65,2.66-1.66,4.06-0.14,11.83-.22,23.66,0,35.49,0.08,4.77-1.77,6.58-6.5,6.45-8.32-.22-16.65-0.06-26-0.06,3.91,5.91,7.4,11.26,11,16.55,1.87,2.77,2.4,5.66-1.17,6.88-1.41.48-4.35-1.15-5.48-2.65-4.08-5.41-7.68-11.17-11.93-17.49-4,6-7.66,11.5-11.32,17-1.62,2.41-3.35,5.16-6.73,2.94s-1.72-4.82,0-7.31c3.35-5,6.64-10,10.59-15.89H387.11c-5.17,0-10.33-.08-15.5,0-3.67.07-5.64-1.35-5.63-5.23q0.05-30.75,0-61.49c0-3.84,1.8-5.34,5.53-5.33q36.49,0.07,73,0c3.72,0,5.64,1.51,5.51,5.35-0.06,1.83.53,3.89-.13,5.44-0.82,1.95-2.62,3.48-4,5.19-1.29-1.63-2.69-3.19-3.82-4.92C441.66,260.71,441.91,259.69,441.85,258.49Z" transform="translate(-365.98 -250.25)"/></svg>