<svg id="Слой_1" data-name="Слой 1" xmlns="http://www.w3.org/2000/svg" viewBox="0 0 97.89 99.51"><defs><style>.cls-1{fill:#fff;}</style></defs><title>parol</title><path class="cls-1" d="M422.09,248.14c13.09,0.8,26,1.61,39,2.36,5,0.29,7.41,2.46,8,7.89a296.82,296.82,0,0,1-.13,67.2c-0.5,4.25-2,6.69-6.63,6.91-9.79.46-19.56,1.48-29.35,1.73-4.33.11-7.17,1.36-7.85,5.65-0.94,5.91-4.57,7.94-10,7.75-3-.1-6-0.1-8.94-0.32-5.26-.39-9.66-1.65-10.3-8.25-0.44-4.55-3.77-5.82-8.19-6-11.84-.46-12.26-0.76-13.27-12.36a306.32,306.32,0,0,1,.57-62.77c0.62-5.27,3.14-7.17,7.9-7.44C396,249.74,409.07,248.93,422.09,248.14Zm6.73,83.07c11-.74,21.77-1.31,32.48-2.34,1.44-.14,3.47-2.43,3.83-4A56.12,56.12,0,0,0,466.6,312c-0.26-17.79-.84-35.57-1.25-53.35-0.07-3.2-1.78-4.23-4.72-4.51a382.64,382.64,0,0,0-74.32-.17c-7.43.74-7.43,0.83-8.31,8.17a25.46,25.46,0,0,0-.18,3c0,17.3-.44,34.61.09,51.89,0.4,13.27.16,12,13.22,12.6a2.75,2.75,0,0,0,1-.55c0-10.56,0-21.19,0-31.83,0-4.11,2.28-6.74,6.36-6.84,4.29-.11,6.16,2.78,6.3,6.8,0.11,3.3,0,6.61,0,9.64,7,2.23,13.61,4,19.87,6.56,1.9,0.79,3.54,3.88,4,6.16C429.31,323,428.82,326.75,428.82,331.21Zm-33.06-17.77a50.75,50.75,0,0,0,4.33,26.21c0.64,1.45,2.18,3.26,3.56,3.5a81.28,81.28,0,0,0,11.85.86c3.22,0.09,5.2-1.51,5.91-4.78,1.3-5.94,2.88-11.82,4.05-17.78,0.26-1.32-.51-4-1.17-4.14-3.05-.58-5.75-2.28-8.45-2.92-2.48-.59-5.36,1.13-6.76-2.6a17.83,17.83,0,0,0-3.3.82c-1,.3-2.39,1.3-2.8,1a4.82,4.82,0,0,1-1.68-3.14c-0.2-4.15.11-8.33-.24-12.45-0.12-1.37-1.64-2.62-2.52-3.93-0.93,1.31-2.56,2.57-2.66,3.94C395.55,302.63,395.76,307.3,395.76,313.44Z" transform="translate(-373.03 -248.14)"/><path class="cls-1" d="M421.69,280c-8,0-16,.1-24,0-5.41-.09-6.88-2.1-6.79-8.58,0.08-6.25,1.39-8,6.64-8q24.72-.13,49.44,0c4.64,0,6,2.08,6.06,8.1s-1.36,8.32-5.89,8.42c-8.49.19-17,.05-25.48,0.05V280ZM422,266.89V267c-7.82,0-15.63.12-23.45-.05-3.62-.08-4.05,2-4.09,4.74,0,2.9.85,4.77,4.24,4.76q23.21-.1,46.42,0c3.28,0,4.3-1.75,4.36-4.72,0.07-3.2-.94-4.94-4.55-4.86C437.3,267,429.65,266.89,422,266.89Z" transform="translate(-373.03 -248.14)"/><path class="cls-1" d="M441.91,320.36a7.75,7.75,0,0,1-7.48-7.28c-0.05-3.87,3.82-7.67,7.75-7.61a8.15,8.15,0,0,1,7.49,7.37C449.78,316.75,446,320.42,441.91,320.36Zm5.89-7.28c-2.69-1.88-4.35-3.91-5.53-3.67-1.56.33-2.75,2.44-4.1,3.79,1.33,1.19,2.58,3.19,4,3.33S445.08,314.85,447.8,313.07Z" transform="translate(-373.03 -248.14)"/><path class="cls-1" d="M428.74,295.1c0,3.92-3.87,7.5-7.9,7.35a7.63,7.63,0,0,1-7.22-7.46,8.06,8.06,0,0,1,7.34-7.48C424.81,287.39,428.76,291.26,428.74,295.1Zm-7.56,5.59c1.85-2.63,3.91-4.34,3.63-5.45-0.4-1.57-2.53-2.71-3.91-4-1.2,1.34-3.22,2.6-3.35,4S419.33,298.08,421.18,300.69Z" transform="translate(-373.03 -248.14)"/><path class="cls-1" d="M442.11,302.46a7.9,7.9,0,0,1-7.67-7.1c-0.15-3.82,3.68-7.8,7.55-7.85s7.78,3.91,7.67,7.72A7.93,7.93,0,0,1,442.11,302.46Zm0.1-1.9c1.76-2.5,3.78-4.14,3.53-5.28-0.35-1.56-2.43-2.73-3.76-4.06-1.27,1.4-3.27,2.68-3.55,4.26C438.22,296.61,440.31,298.15,442.2,300.55Z" transform="translate(-373.03 -248.14)"/></svg>