<svg id="Слой_1" data-name="Слой 1" xmlns="http://www.w3.org/2000/svg" viewBox="0 0 92.45 128"><defs><style>.cls-1{fill:#fff;}</style></defs><title>pult</title><path class="cls-1" d="M440,362.28c-1.12-1.45-2.7-2.73-3.28-4.37-2.21-6.26-6.84-6.76-12.56-6.5-9,.41-18,0.15-27,0.09-8.54-.05-12.33-3.73-12.35-12.09q-0.08-28,0-56c0-7.7,4-11.78,11.69-11.86q17.5-.2,35,0c7.69,0.09,11.58,4.14,11.79,11.81a2.82,2.82,0,0,1,0,.5c-1.11,7.2,1.07,12.61,7.43,16.84a18.69,18.69,0,0,1,8.53,19.05c-2.05,14.17,1.92,26,12.2,36,1.35,1.31,1.07,4.28,1.55,6.49h-3c-4.51-5.76-9.2-11.4-13.44-17.36a14.23,14.23,0,0,1-2.42-7.24c-0.32-7,0-14-.15-21-0.09-6.16-4.36-11.74-10.69-14.09,0,4.4.16,8.73-.05,13-0.18,3.53.54,6.38,3.3,8.91,1,0.94.81,3.25,1.16,4.93-1.68-.5-3.78-0.52-5-1.57-4.2-3.78-8-8.06-12.18-11.81-1.18-1-3.4-.93-5.14-1.34,0.21,1.78-.11,3.88.73,5.29a106.53,106.53,0,0,0,8.2,11.92c2.87,3.59,3.59,7.45,3.88,12,0.26,4.08,2.39,8,3.54,12.07,0.58,2,.83,4.19,1.23,6.29h-3Zm-2-46.84c0-11.83.15-22.73-.08-33.62-0.08-3.69-2.94-4.81-6.35-4.8q-17.47.05-34.93,0c-4.63,0-6.6,2.24-6.59,6.76q0.07,27.95,0,55.9c0,4.58,2.27,6.66,6.79,6.62,5.66-.06,11.31,0,17,0h20.44c-1.77-4.58-2.67-8.19-4.47-11.28-2.67-4.58-6.07-8.73-9-13.17-2.7-4.08-2.12-8.3,1.28-11.2s7.65-2.65,11.31.54C434.67,312.32,435.93,313.55,438,315.44Z" transform="translate(-380.55 -234.28)"/><path class="cls-1" d="M421,234.28c7.23,3.15,14.5,6.19,21.64,9.54,1.86,0.87,3.28,2.7,5.17,4.32L444.34,252c-8.63-7.94-18.64-12.38-30.22-12.37s-21.4,4.15-30,12.15l-3.54-2.91a7.87,7.87,0,0,1,1-1.82,47.2,47.2,0,0,1,22.22-11.69c1.09-.26,2.14-0.71,3.2-1.07h14Z" transform="translate(-380.55 -234.28)"/><path class="cls-1" d="M440.08,256l-3.16,3.39c-15.12-12-30.24-12.34-45.94.23l-3.17-3.44C401.68,241.39,426.5,241.39,440.08,256Z" transform="translate(-380.55 -234.28)"/><path class="cls-1" d="M429.38,267c-10.52-8.09-20.44-7.9-30.48-.2L394.83,263c3.72-2.12,6.77-4.37,10.18-5.69,9.61-3.73,19.6-1.47,27.53,6.07Z" transform="translate(-380.55 -234.28)"/></svg>