<svg id="Слой_1" data-name="Слой 1" xmlns="http://www.w3.org/2000/svg" viewBox="0 0 120 88"><defs><style>.cls-1{fill:#fff;}</style></defs><title>konvert</title><path class="cls-1" d="M482,254.28v88H362v-88H482Zm-111.3,8.27c1,1.19,1.57,1.95,2.22,2.6,13.47,13.36,26.9,26.76,40.44,40.05,7.28,7.14,10.09,7.09,17.5-.19q19.93-19.6,39.72-39.36a37.37,37.37,0,0,0,2.49-3.1H370.7ZM472,334.06l-32.2-26.3c-5.64,4.9-10,10.67-18,10.57s-12.12-6.1-17.59-10.55l-32.07,26.27H472Zm1.85-59.27-27.41,28.09,27.41,22.39V274.79Zm-103.45-.33v50.73L398,302.51Z" transform="translate(-362 -254.28)"/></svg>