<svg id="Слой_1" data-name="Слой 1" xmlns="http://www.w3.org/2000/svg" viewBox="0 0 116.34 126.78"><defs><style>.cls-1{fill:#fff;}</style></defs><title>mobile</title><path class="cls-1" d="M445,234.28l7.93,6.06c6.73-3.2,11.54-2.94,15.17,1,3.49,3.8,3.57,8.84.23,15.3,12.29,5.64,12.79,13,1.27,24.17,5.84,1.25,10.42,3.89,10.89,10.3,0.44,6-3.19,9.84-8,12.64,6.65,8.42,6.08,13.33-2.18,19.93-2.86,2.28-5.83,4.44-8.85,6.5-3.8,2.59-7.45,4.91-9.34,9.72-1.73,4.41-6.12,6-11,6.46a38.34,38.34,0,0,0-10.84,2.68c-7.55,3-14.95,6.45-22.36,9.82-16.21,7.37-39-5.08-42.54-22.75-1.25-6.16-1.83-13.35.13-19.11,4.74-13.93,3.91-27.85,3-42a136.32,136.32,0,0,1-.29-15c0.19-4.06,1.22-8.07,5.95-9.41,4.9-1.38,8.42.9,11.13,4.68,1.51,2.12,2.7,4.46,4.76,7.91,0-5.13.29-9-.06-12.88-0.68-7.57,2.3-12.85,9.06-16.13h46Zm3.32,90.42V255.56c-17,0-33.67-.07-50.29.18-0.95,0-2.63,2.58-2.66,4-0.2,13.31-.12,26.62-0.12,39.94,0,8.27,0,16.54,0,25h53.07Zm-26.64,22.66-0.13-1.06c-5.77,0-11.55,0-17.32,0-9.4,0-14.19-4.76-14.22-14.06,0-11.82.64-23.69-.2-35.46-0.75-10.54-2.91-21-5-31.42a17.69,17.69,0,0,0-4.61-8.08c-2.92-3.09-6.64-1.67-7,2.54a78.64,78.64,0,0,0,.29,11.46c1.17,16.11,2.41,32-3.28,47.87-3.79,10.58-1.28,21.07,7.61,28.64s19.11,10.57,30.53,5.36C412.82,351.15,417.26,349.28,421.68,347.36Zm26.85-97.3c-0.09-8.68-1.78-10.5-9.44-10.52q-17.5,0-35,0c-7.33,0-9.64,3-8.16,10.52h52.59Zm-0.22,80.48H395.78c-1.13,7.84,1,10.44,8.46,10.47,11.62,0,23.24,0,34.86,0C446.93,341,448.87,338.87,448.3,330.53Zm5.72-20.9c7-4.73,13.12-8.71,19-13,2.9-2.08,3.26-5.32.9-7.83-1.22-1.29-4.42-2.3-5.76-1.6a107.26,107.26,0,0,0-12.9,8.5,4.28,4.28,0,0,0-1.23,3C453.92,302,454,305.29,454,309.63Zm0-23.14c6.14-5.13,11.25-9.39,16.34-13.68,3-2.49,3.08-5.42.89-8.38-2.33-3.16-5-2.56-7.75-.37-2.47,2-5.09,3.76-7.48,5.83A5.3,5.3,0,0,0,454.1,273C453.88,277.14,454,281.25,454,286.48Zm0,42.6c5.83-4.4,10.64-7.89,15.28-11.59,2.66-2.12,3.55-5,1.17-7.81-2.21-2.65-4.7-1.53-7.06.08-2.19,1.5-4.65,2.69-6.54,4.49a9.85,9.85,0,0,0-2.74,5.13C453.67,322.09,454,324.92,454,329.09Zm0-67.42c3.59-3.06,6.28-5.41,9-7.69s3.93-4.89,1.77-7.72c-1.16-1.52-3.9-3.12-5.47-2.75-2.9.69-5.71,2.47-5.4,6.54C454.21,253.49,454,257,454,261.67Z" transform="translate(-364.18 -234.28)"/></svg>