<svg id="Слой_1" data-name="Слой 1" xmlns="http://www.w3.org/2000/svg" viewBox="0 0 99.78 128"><defs><style>.cls-1{fill:#fff;}</style></defs><title>sms</title><path class="cls-1" d="M437,234.28c9.06,5.35,10.24,7,8.52,23.52h-4.33a36,36,0,0,1-.28-5.2c0.31-3.7-.76-5.35-4.94-5.3-18.14.21-36.29,0.15-54.44,0.06-3.16,0-4.45.93-4.43,4.26q0.14,42.7,0,85.41c0,3.42,1.43,4.21,4.5,4.19q27.47-.13,54.94,0c3.19,0,4.54-1,4.4-4.31-0.19-4.29,0-8.59,0-12.88,3.75-1.17,5.43-.54,5.31,3.35a172.41,172.41,0,0,0,0,18c0.57,7.81-1.91,13.6-9.25,16.91H381c-7.33-3.31-9.31-9.08-9.23-16.88q0.49-47.11,0-94.23c-0.08-7.8,2-13.54,9.23-16.89h56ZM408.54,355.15v0c2.16,0,4.51.53,6.41-.16,1.65-.6,2.79-2.58,4.16-3.95-1.38-1.16-2.68-3.16-4.17-3.32a57.56,57.56,0,0,0-12.41.1c-1.32.15-3.57,2.4-3.38,3.23a6.37,6.37,0,0,0,3.47,3.9C404.36,355.67,406.55,355.15,408.54,355.15Zm7.33-112.65-0.18-1.67c-4.49-.47-9-1.19-13.33,1.67h13.52Z" transform="translate(-371.77 -234.28)"/><path class="cls-1" d="M433.49,263.77q15,0,30,0c6.67,0,8,1.32,8.06,7.74q0,19.49,0,39c0,5.52-1.57,7.23-7.08,7.25q-31,.12-62,0c-5.66,0-7-1.55-7-7.21q0-19,0-38c0-7.8,1-8.76,9.06-8.78C414.17,263.74,423.83,263.77,433.49,263.77Zm-34.69,5.49c1.91,2.27,2.72,3.73,3.94,4.6,9.18,6.57,18.37,13.15,27.79,19.36,1.42,0.94,4.6.79,6.09-.19,9.29-6.12,18.35-12.58,27.4-19,1.32-.94,2.17-2.52,4-4.74H398.8Zm62.56,43.12,0.54-1.21c-5.12-4.43-10.34-8.77-15.33-13.34-2.9-2.65-5.47-3.38-8.52-.35s-5.95,2.9-9.21.09c-1.34-1.15-4.27-2.51-5.06-1.9-6.51,4.93-12.69,10.3-19,15.54l0.67,1.17h55.88ZM467,279.16L465.85,278l-19.8,13.9,19.81,16.59,1.15-.88V279.16Zm-67.16,28.49,1.37,0.87,19.61-16.71-21-14.41v30.25Z" transform="translate(-371.77 -234.28)"/></svg>