<svg id="Слой_1" data-name="Слой 1" xmlns="http://www.w3.org/2000/svg" viewBox="0 0 112.16 112.73"><defs><style>.cls-1{fill:#fff;}</style></defs><title>phone</title><path class="cls-1" d="M388.69,241.82l27.62,33.7-12.07,9.66,30.47,30.7,9.61-12.26,33.86,27.69c-7.21,6.8-13.76,13.88-21.24,19.79-6.37,5-14.29,3.5-21.69,2-31.26-6.51-63.2-39.94-68.67-71.54-1.69-9.77.36-18,7.95-24.82C379.42,252.29,383.67,247.15,388.69,241.82ZM434.41,327l-41.49-41.31L405.51,275,388.1,253.74c-2.67,3-4.73,5.92-7.4,8.1-6.52,5.33-7.58,11.91-6,19.74,2.57,12.78,8.74,23.67,17,33.4,12.89,15.14,28,27,48.21,30.78,5,0.93,10.1,1.36,14.27-2.29s7.89-7.54,12.05-11.56L445,314.58Z" transform="translate(-366.02 -241.82)"/><path class="cls-1" d="M447,266.29H430.33v-7.74h31.28v31.4h-7.56V272.3l-22,22.82-5.75-6.39,21.77-20.79Z" transform="translate(-366.02 -241.82)"/></svg>