<svg id="Слой_1" data-name="Слой 1" xmlns="http://www.w3.org/2000/svg" viewBox="0 0 107.72 128"><defs><style>.cls-1{fill:#fff;}</style></defs><title>police</title><path class="cls-1" d="M448,234.28c8.08,6.86,16.06,13.82,24.27,20.52,3.31,2.7,4,4.47.38,7.73-9.56,8.65-10.77,20.52-4.13,33.2,2.3,4.39,5,8.73,6.33,13.44,4.61,16.91-6.67,35.54-24.51,41.23-6,1.91-12.19,3.34-18,5.68-3.39,1.36-6.24,4.09-9.33,6.21h-2c-3.54-2.32-6.83-5.21-10.66-6.82-5-2.12-10.44-3.34-15.73-4.77-18.44-5-35.79-29.18-20.7-52.2,4.55-6.94,7.94-14.73,5-23.1-1.69-4.83-4.87-9.33-8.14-13.36-2.26-2.77-2.44-4.3.26-6.49,7.24-5.88,14.4-11.85,21.56-17.83,1.23-1,2.27-2.28,3.41-3.43h2l11,9.92,11-9.92h4l11.23,10,10.77-10h2Zm-50.77,6.58-20.89,17.26c2.68,5.1,5.84,9.53,7.43,14.47,3.29,10.22.17,19.71-5.17,28.55-3.8,6.29-6.51,12.8-5,20.32,2.59,13.18,11.19,20.57,23.55,24.53,7.88,2.52,15.58,5.59,23.4,8.31a5,5,0,0,0,3.09,0c8.28-2.9,16.48-6.06,24.8-8.85,11.63-3.91,19.42-11.28,22.07-23.51,1.67-7.7-1.06-14.37-4.94-20.81-5.13-8.52-8.39-17.66-5.42-27.57,1.58-5.27,4.78-10.06,7.5-15.58l-20.7-17.09a92.41,92.41,0,0,0-7.19,6.52c-2.79,3.1-5.19,3.42-8.35.45-2.87-2.7-6.19-4.92-9.44-7.45-3.4,2.72-6.66,5-9.56,7.75s-5.06,2.3-7.59-.4C402.52,245.37,399.93,243.3,397.23,240.86Z" transform="translate(-368.16 -234.28)"/><path class="cls-1" d="M448.69,298.54C448.5,312.72,436.06,325,422,325c-14.38-.05-26.89-12.68-26.7-27,0.18-14.13,12.71-26.52,26.74-26.45C436.39,271.61,448.88,284.25,448.69,298.54Zm-34.08,10c5.21-5.53,10.06-4.69,15.28,0-3.74-6.49-1.49-10.75,4.19-14.36-7.32,1.26-10.64-2-12-8.86-1.13,7.23-5.17,9.76-12.11,9.13C416.6,297.76,417.31,302.35,414.61,308.58Zm-2.06,8.52c7,3.42,14.16,3.19,18.6-.38C419.77,309,424.58,308.61,412.55,317.1Zm-9.4-28.77c12.13,1.07,13.48.07,15-10.8C410.93,278.82,407.13,281.48,403.15,288.32Zm3.53,24.95c4.8-11.42,4.23-13.09-5.62-17.54C400.13,302.38,401.87,308.06,406.69,313.27Zm30.72-.07c4.68-5.33,6.52-10.88,5.41-17.65C431.7,302.94,432.84,300.21,437.41,313.21Zm-12.08-36c3.75,12.05,6.42,13.81,15.11,10.28C437.24,281.71,432.31,278.61,425.33,277.21Z" transform="translate(-368.16 -234.28)"/><path class="cls-1" d="M421.8,266.28c-3.83,0-7.67.22-11.47-.11-1.47-.13-2.82-1.52-4.22-2.34,1.45-.94,2.88-2.64,4.36-2.69,7.81-.27,15.63-0.25,23.44,0,1.36,0,2.67,1.67,4,2.57-1.38.86-2.71,2.33-4.15,2.45C429.8,266.5,425.79,266.28,421.8,266.28Z" transform="translate(-368.16 -234.28)"/><path class="cls-1" d="M422.18,335.51c-4.16,0-8.33.19-12.47-.12-1.26-.09-2.42-1.58-3.62-2.43,1.17-.89,2.32-2.52,3.51-2.56q12.47-.34,24.94,0c1.14,0,2.24,1.75,3.35,2.69-1.08.8-2.12,2.22-3.24,2.29C430.51,335.68,426.34,335.51,422.18,335.51Z" transform="translate(-368.16 -234.28)"/></svg>