<svg id="Слой_1" data-name="Слой 1" xmlns="http://www.w3.org/2000/svg" viewBox="0 0 128 128"><defs><style>.cls-1{fill:#fff;}</style></defs><title>assortement</title><path class="cls-1" d="M477,234.28h9v128H473V349.67H371v12.61H358v-128h9c3.09,2.9,4.18,6.38,4,10.66-0.32,6.26-.08,12.55-0.08,19h6.24c0-4.91-.06-9.54,0-14.17,0.08-5.2,1.66-6.77,6.93-6.88q6-.13,12,0c5.17,0.12,6.76,1.77,6.83,7,0.06,4.62,0,9.24,0,14.06h6.23c0-5.05,0-9.84,0-14.64,0-4.33,2.07-6.46,6.4-6.44,4.16,0,8.33-.08,12.49,0,5.19,0.1,6.78,1.72,6.86,7,0.07,4.75,0,9.5,0,14.15h6.23c0-4.84-.06-9.46,0-14.08,0.08-5.33,1.6-6.9,6.81-7,3.83-.09,7.66,0,11.49,0,5.93,0.08,7.4,1.53,7.45,7.37,0,4.59,0,9.18,0,13.74h6.24c0-6.48.23-12.77-.08-19C472.83,240.66,473.78,237.12,477,234.28Zm-99.89,70.11c0-4.9,0-9.21,0-13.52,0.05-5.88,1.61-7.49,7.29-7.55,3.83,0,7.66-.05,11.49,0,5.14,0.08,6.9,1.79,7,6.88,0.07,4.62,0,9.25,0,14.1h6.22c0-4.89-.06-9.51,0-14.14,0.08-5.09,1.82-6.77,7-6.84,3.83-.05,7.66,0,11.49,0,5.45,0,7.18,1.71,7.26,7.1,0.07,4.61,0,9.22,0,13.85h6.23c0-5.13,0-9.93,0-14.73,0-4,2-6.19,6.15-6.21s8.33,0,12.49,0c5.41,0.06,7,1.72,7.11,7.23,0.05,4.59,0,9.19,0,13.81h5.82V268.73H371.24v35.67h5.87Zm95.81,5H371.22V344.9h5.9c0-5.15,0-10,0-14.77,0-4.06,2-6.19,6.12-6.19,4.33,0,8.67.06,13,0,4.62-.09,6.72,2.14,6.66,6.7-0.06,4.77,0,9.55,0,14.65l6.23-.29c0-5.24,0-10,0-14.86,0-4.06,2-6.18,6.12-6.18,4.33,0,8.67,0,13,0,4.62-.08,6.7,2.19,6.64,6.73-0.06,4.77,0,9.54,0,14.28h6.23c0-5.13,0-9.94,0-14.75,0-4,2-6.22,6.1-6.23,4.33,0,8.67.07,13,0,4.6-.08,6.75,2.08,6.68,6.67-0.07,4.77,0,9.54,0,14.31h6.05V309.39Zm8.88-10.61q0-26.73,0-53.46c0-1.17.29-2.44-.09-3.47a15.11,15.11,0,0,0-2.23-3.24,15.25,15.25,0,0,0-2,3,8.9,8.9,0,0,0-.09,3q0,53.46,0,106.91c0,1.17-.28,2.44.1,3.47a13.54,13.54,0,0,0,2.23,3.06,23.53,23.53,0,0,0,2-3.31,7,7,0,0,0,.05-2.48Q481.8,325.5,481.8,298.77Zm-115.25,0q0-21.48,0-43c0-4.16.2-8.34-.12-12.48-0.12-1.62-1.43-3.15-2.19-4.72-0.69,1.65-1.39,3.29-2,4.95a2.89,2.89,0,0,0,0,1q0,54,0,107.91a6.23,6.23,0,0,0,.06,2.47,20.09,20.09,0,0,0,2.22,3.08,18.71,18.71,0,0,0,2-3.3,9,9,0,0,0,.07-3Q366.56,325.28,366.56,298.8Zm79.17-35.05h16.54V247.48H445.73v16.26Zm-15.59.18V247.41H413.82v16.52h16.32Zm-31.91,24H381.81v16.16h16.43V288Zm31.92,16.16V287.84H413.73v16.28h16.43Zm31.93,0V287.92H445.77v16.23h16.31Zm-80.37-40.38H398.1v-16.3H381.71v16.3Zm0,64.68v16.38h16.54V328.45H381.73Zm32,16.48h16.47V328.44H413.71v16.49ZM462.27,345v-16.5H445.9V345h16.36Z" transform="translate(-358 -234.28)"/></svg>