<svg id="Слой_1" data-name="Слой 1" xmlns="http://www.w3.org/2000/svg" viewBox="0 0 128 128"><defs><style>.cls-1{fill:#fff;}</style></defs><title>client</title><path class="cls-1" d="M426,362.28c0.07-6,.27-12,0.18-18a14.44,14.44,0,0,1,4.52-11.16c8.19-8,16.24-16.23,24.31-24.33,6.85,5.69,6.36,9.83-3.14,22,3.88-.66,7.11-0.36,9.24-1.75,4.42-2.89,8.34-6.59,12.26-10.18,0.79-.73.92-2.42,1-3.68,0.13-3.33,0-6.66.07-10,0.12-8.89,2.92-12,11.6-12.95v34c-7.41,6.84-14.54,14-22.32,20.39-5.29,4.34-6.92,9.26-5.68,15.61H426Zm28.37-4.12c-2.1-7.22,3.28-10.25,7.26-14.07,5.89-5.65,11.86-11.22,17.72-16.91,1.14-1.11,2.67-2.58,2.71-3.92,0.24-8.73.13-17.48,0.13-26.63-4.25,2.83-4.73,3.09-4.26,9.61,0.6,8.49-.83,15-8.21,21.13-8.07,6.72-16.15,7.24-26.09,6.07,3.22-3.22,6-6,8.78-8.77,2.95-2.92,5-6,2.54-10.67-8,7.86-15.71,15.39-23.32,23a5.8,5.8,0,0,0-1.64,3.54c-0.17,5.77-.08,11.54-0.08,17.58h24.47Z" transform="translate(-358 -234.28)"/><path class="cls-1" d="M358,292.28c8,0.34,10.95,3.3,11.18,11.36a4,4,0,0,1,0,1c-2.48,10.57,2.92,17.43,11.12,22.59,3,1.88,6.71,2.61,10.84,3.14-6.23-6.93-10.22-13.54-2.74-21.95,9.11,9.06,18.13,17.86,26.89,26.9a9.72,9.72,0,0,1,2.3,5.91c0.29,6.44.11,12.9,0.11,19.67H387a1.76,1.76,0,0,1-.58-0.72c1.23-6.87-2.73-11-7.44-15.07C373.1,340,367.64,334.36,361.92,329a32.9,32.9,0,0,0-3.92-2.74v-34Zm31.43,65.83h24.8c0-4.1-.25-7.91.06-11.67,0.44-5.24-1.26-9.22-5.16-12.8-5.88-5.4-11.35-11.25-17-16.87-1-1-2.12-1.74-3.76-3.06C386,324.55,396.63,326.87,400,334c-2.92,0-5.25-.11-7.57,0a23.38,23.38,0,0,1-15.38-4.32c-8.86-6.07-13-13.58-11-24.27a6.73,6.73,0,0,0-.14-3.46,47.5,47.5,0,0,0-2.68-5.22l-1.53.49c0,7.91-.18,15.83.12,23.72a9.74,9.74,0,0,0,2.59,6c6.33,6.38,12.9,12.53,19.49,18.64C387.55,348.85,391.51,351.85,389.43,358.11Z" transform="translate(-358 -234.28)"/><path class="cls-1" d="M427,234.28c1.65,0.72,3.34,1.37,5,2.16a19.26,19.26,0,0,1,11,13.91c0.81,3.79,2.18,7.49,2.6,11.31a9.62,9.62,0,0,1-3.21,8.68c-3.73,3.61-6.25,8.66-8.62,13.42-1.19,2.4.25,4.54,3.3,5.5,7.29,2.29,14.43,5,21.7,7.39,3.66,1.19,2.89,4,2.72,6.52-0.07,1.11-1.17,2.15-2.56,3.15,0.54-6-3.19-7.37-7.45-8.64a169.33,169.33,0,0,1-16.44-5.8c-2.3-1-4.16-3-6.22-4.51l0.81-1.43H418c0.72,4.21-2.29,5.09-5.38,6.12-6.15,2-12.23,4.29-18.36,6.37-2.62.89-5.11,1.67-4.57,5.33,0.09,0.58-1,1.34-1.57,2-0.62-.77-1.69-1.48-1.79-2.31-0.43-3.74-.42-6.89,4.63-8.16,6.58-1.65,12.89-4.35,19.31-6.64,4.7-1.68,5.4-4.41,2.28-8.51s-6.24-7.91-8.95-12.12a10,10,0,0,1-1.44-6.19,102.86,102.86,0,0,1,2.92-13.29c2.21-8.14,8.58-11.79,15.94-14.28h6Zm11.84,22.23c1.45-10.4-6.5-18.7-15.82-18.23-9.61.48-16.56,8.9-15.7,18.83,0.14,1.63-.44,3.32-0.46,5s-0.21,3.47.51,4.75c1.41,2.52,3.68,4.56,5.1,7.08,2.54,4.5,5.26,8.45,11.14,8.6s8.67-3.85,11.31-8.29c1.55-2.6,3.83-4.75,5.55-7.26,0.76-1.11,1.55-2.76,1.26-3.89C441.16,260.81,439.85,258.7,438.84,256.51Z" transform="translate(-358 -234.28)"/></svg>