<svg id="Слой_1" data-name="Слой 1" xmlns="http://www.w3.org/2000/svg" viewBox="0 0 88.64 118.31"><defs><style>.cls-1{fill:#fff;}</style></defs><title>guarantee</title><path class="cls-1" d="M466.23,298.64c0,17.49-.14,35,0.09,52.46,0.06,4.63-1.06,6.38-6.07,6.33q-38.47-.36-76.94,0c-4.46,0-5.64-1.43-5.62-5.75,0.15-30.81.07-61.62,0.06-92.43,0-.17,0-0.33,0-0.5,0.12-4.86,15-19.49,19.81-19.49,21,0,42,.14,63-0.12,4.82-.06,5.9,1.65,5.85,6.06-0.19,17.82-.08,35.64-0.08,53.46h0Zm-83.16-38.75v92h78V244.58H397.42c0,3.53-.19,6.68,0,9.8,0.3,4-1.17,5.89-5.38,5.56C389.16,259.71,386.2,259.89,383.07,259.89Zm9.44-11-5.58,5.71a14.54,14.54,0,0,0,2.15.33c1,0,1.91-.15,3-0.25a16.22,16.22,0,0,0,.43-2.08C392.56,251.64,392.51,250.65,392.51,248.91Z" transform="translate(-377.69 -239.12)"/><path class="cls-1" d="M427,278.66c1.93-3.58-.09-6.17-3.27-8.67-2.75-2.17-2.42-4.65,1.23-5.05,4.5-.5,7.56-1.94,9.37-6.47,1.21-3,3.88-2.53,5,.37,1.6,4.05,4.17,6,8.56,5.93,1.07,0,3,1.11,3,1.83a4.84,4.84,0,0,1-1.63,3.7c-3.24,2.43-3.9,5.19-2.89,9.08,0.94,3.62-1.07,5.08-4.47,3.1-3.73-2.17-6.82-2.09-10.53,0C428,284.44,426.7,283.25,427,278.66Zm6.43-3.2h6.81l1.72-5.87-5.26-3.91-5.24,4Z" transform="translate(-377.69 -239.12)"/><path class="cls-1" d="M422,310.51c9,0,18-.14,27,0.12,1.66,0,3.28,1.72,4.91,2.64-1.63.72-3.26,2.05-4.9,2.07q-27,.23-53.92,0c-1.64,0-3.27-1.35-4.91-2.07,1.63-.93,3.24-2.61,4.9-2.66C404,310.37,413,310.51,422,310.51Z" transform="translate(-377.69 -239.12)"/><path class="cls-1" d="M421.48,327.84c-8.81,0-17.63.14-26.44-.13-1.66,0-3.27-1.71-4.9-2.62,1.65-.71,3.29-2,4.94-2q26.94-.23,53.88,0c1.64,0,3.27,1.37,4.9,2.1-1.65.9-3.27,2.54-4.94,2.59C439.78,328,430.63,327.84,421.48,327.84Z" transform="translate(-377.69 -239.12)"/><path class="cls-1" d="M406.93,340.18c-4.48,0-9,.19-13.43-0.12-1.18-.08-2.24-1.71-3.36-2.63,1.12-.73,2.23-2.06,3.36-2.09q13.69-.26,27.38,0c1.12,0,2.22,1.36,3.32,2.09-1.11.92-2.17,2.54-3.33,2.62C416.23,340.36,411.57,340.18,406.93,340.18Z" transform="translate(-377.69 -239.12)"/></svg>