<svg id="Слой_1" data-name="Слой 1" xmlns="http://www.w3.org/2000/svg" viewBox="0 0 128 112.83"><defs><style>.cls-1{fill:#fff;}</style></defs><title>loyalty</title><path class="cls-1" d="M358,347.28h22.67V306.2h-18c2-3.16,9.3-3.79,21-2.36l0.6,4.43h10.81c-7.53-29.78-1.7-48.56,18.51-60.28a45.77,45.77,0,0,1,54.49,6.68c16,15.3,18.18,36,6,59,5.36-1.54,9.14.37,11.91,4.57v5c-1.92,1.76-3.57,4-5.79,5.19-15.07,8.08-30.28,15.89-45.39,23.89A18.82,18.82,0,0,1,419,353.54c-7.36-2.59-14.72-5.19-22.2-7.38-3.87-1.13-8-1.38-12.24-2.07l-1,6.2H358v-3Zm45.71-59.62a31.62,31.62,0,0,0,10.35,24c4.48,4.25,9.52,7,16.12,6.35,3.77-.38,7.64.21,11.46,0.13,2.82-.06,5.94.18,8.4-0.91a32.56,32.56,0,0,0,17.76-39.08c-4.67-15.65-20.34-25.32-37-22.81C415.43,257.68,403.77,271.58,403.71,287.66Zm-19.47,52.1c10.55,3.12,20.49,6.06,30.43,9,1.75,0.52,3.51,1.06,5.22,1.71,4.84,1.84,9.38,1.27,13.93-1.13,14.87-7.83,29.81-15.54,44.72-23.29,2.81-1.46,5.58-3.14,3.83-6.87s-4.92-3-8.09-1.62Q459.7,324.07,445,330.4a21.42,21.42,0,0,1-5.68,1.71c-9.69,1.22-19.9-2.83-29.57,3.77,0.9-5.45,4-6.59,8-6.6,7.17,0,14.35.24,21.48-.21,1.64-.1,3.13-2.58,4.69-4a46.87,46.87,0,0,0-4.71-4.07c-0.69-.47-2-0.19-2.95-0.09a49.7,49.7,0,0,1-31.08-6.73c-6.54-3.84-13.78-2.62-21-2.38v27.92Zm63.37-13.89c5.31-2.29,10.46-4.24,15.32-6.74a22.09,22.09,0,0,0,7.29-5.67,42.71,42.71,0,0,0-51.07-65.13,43.1,43.1,0,0,0-25,46.17c1.89,12.13,4.51,15.08,16.15,18-1.21-1.61-2.35-3-3.4-4.51a35.81,35.81,0,1,1,43.55,12.31C448.06,321.34,445.52,322,447.62,325.87Z" transform="translate(-358 -241.91)"/><path class="cls-1" d="M434.56,269.37l1.18-7.1,1.62,0.16a12,12,0,0,1,.59,3.06c-0.17,2.58.31,4.15,3.27,5.1,3.65,1.17,5.8,4.1,6,9.84-1.73-1.66-2.74-2.24-3.18-3.11-2.07-4.14-5.73-5.5-9.58-4.06-2.31.86-5,3.68-5.31,5.9-0.23,1.83,2.69,4.27,4.58,6.05,0.81,0.76,2.53.58,3.85,0.78,5.65,0.84,9.08,3.87,9.62,8.52s-1.73,8-6.93,10.27c-0.61.26-1.24,0.48-2,.79-0.07,1.08-.11,2.22-0.22,3.35s-0.25,2.2-.41,3.49c-4.66-.85-1.14-4.63-2.82-6.4-4.36-2-9-3.92-7.63-10.67a33.21,33.21,0,0,1,2,2.68c2.34,3.82,5.79,4.87,9.89,3.76,3.16-.85,5.87-3,5-6.38-0.62-2.29-3.08-4.27-5.12-5.9-1-.79-2.91-0.34-4.37-0.63-5.12-1-8.41-4.36-8.75-8.9-0.39-5.1,2.27-8.1,6.81-9.8C433.32,269.94,434.06,269.59,434.56,269.37Z" transform="translate(-358 -241.91)"/></svg>