<svg id="Слой_1" data-name="Слой 1" xmlns="http://www.w3.org/2000/svg" viewBox="0 0 101.85 111.32"><defs><style>.cls-1{fill:#fff;}</style></defs><title>Poddergka</title><path class="cls-1" d="M448.69,272.59c4.3,6.81,4.35,13.52.18,20.54-1.28,2.17-.87,5.28-1.88,7.69-1.39,3.32-2.63,7.45-5.28,9.34-5.81,4.14-5.14,9.67-4.55,15.11,0.21,1.94,2.44,4.3,4.36,5.32,6,3.19,12.36,5.75,18.49,8.72A27.93,27.93,0,0,1,473.6,353c-2-.41-3.69-0.26-4.09-0.92-4.74-7.61-12.6-10.58-20.2-14a31.64,31.64,0,0,0-3.18-1.43c-10-3.19-14.7-9.77-12.58-20.36a10.5,10.5,0,0,1,3-5.67,22.3,22.3,0,0,0,7.86-12.92c0.72-3.45,2.46-6.67,3.35-10.09,0.95-3.62,2.17-7.34-1.25-10.69-1-1-1.19-3-1.43-4.55-2.72-17.92-21.77-26.44-37.21-16.62-6.13,3.9-10.08,14.67-8.76,22.62a44,44,0,0,1,.1,10.31c-0.57,7.81.8,14.82,6.69,20.58,2,1.92,3.06,4.71,4.85,6.85s3.73,3,6.62.7c1.76-1.39,4.83-1.64,7.24-1.46,1,0.08,2.53,2.61,2.54,4,0,1.89-1,5.22-2,5.4-2.48.43-5.3-.31-7.82-1.1-2-.62-3.7-2-6.76-3.8,1.43,10.81-5.65,13.38-12.14,16.5-5.54,2.67-11.22,5.12-16.5,8.22-2.62,1.54-4.43,4.43-6.76,6.53a13.15,13.15,0,0,1-3.38,1.61c0.18-1.15-.06-2.74.6-3.37,3.71-3.5,7.29-7.35,11.6-10,5.37-3.25,11.46-5.29,17.13-8.07,8-3.94,8.51-9.57,1.39-14.74A28.41,28.41,0,0,1,391.6,300.4a6,6,0,0,0-3.06-3.61c-6.19-2.33-8.91-6.74-8.45-14.6,0.4-6.87,3.29-10.36,9.84-11.88a4,4,0,0,0,.84-0.41c5.29-19.6,18-30,34.28-28,15.82,2,27.44,14.43,27.71,30l-4.14.76c0-2.46.42-5-.19-7.32a27.3,27.3,0,0,0-37.19-18.07c-10,4.13-16.84,14.19-15.9,24.27,0.79-2.73,1.29-4.76,2-6.73,2.35-6.83,6.56-12.23,13.67-14.13,15.12-4,34-2.31,37.39,21A5,5,0,0,0,448.69,272.59Zm-52.17,11.58c-0.18-1.81-.22-3-0.43-4.13-0.67-3.7-2.63-6.19-6.64-6.13s-5.35,3-5.58,6.4c-0.19,2.8-.47,5.85.45,8.37,0.7,1.92,3.22,4.42,4.92,4.42,2.09,0,4.61-2,6.12-3.82C396.47,287.94,396.26,285.5,396.52,284.16Z" transform="translate(-371.75 -241.68)"/></svg>