<svg id="Слой_1" data-name="Слой 1" xmlns="http://www.w3.org/2000/svg" viewBox="0 0 138.3 175.28"><defs><style>.cls-1{fill:#3a739a;}.cls-2{isolation:isolate;}</style></defs><title>MavensLOGO</title><polygon id="Rectangle-9-Copy" points="136.19 47.1 136.19 106.53 98.21 106.53 136.19 47.1"/><polygon id="M-Copy-8" class="cls-1" points="0 105.83 38.28 105.83 38.28 63.73 67.94 105.83 135.89 0 93.7 0 67.94 39.48 40.19 0 0 0 0 105.83"/><g class="cls-2"><path class="cls-1" d="M131.48,460.64v-21.9h5.19l5.76,9.26,5.76-9.26h5.19v21.9H148.6v-14.3l-6.16,9.35h-0.12l-6.1-9.26v14.2h-4.72Z" transform="translate(-130.03 -313.33)"/><path class="cls-1" d="M156.76,460.64l9.39-22.06h4.44L180,460.64h-5l-2-4.91h-9.26l-2,4.91h-4.91Zm8.63-9.17h5.82l-2.91-7.1Z" transform="translate(-130.03 -313.33)"/><path class="cls-1" d="M190.33,460.79l-8.85-22.06h5.32l5.73,15.42,5.73-15.42h5.19l-8.85,22.06h-4.25Z" transform="translate(-130.03 -313.33)"/><path class="cls-1" d="M206.82,460.64v-21.9h16.52V443H211.61v4.44h10.32v4.29H211.61v4.6h11.89v4.29H206.82Z" transform="translate(-130.03 -313.33)"/><path class="cls-1" d="M227.78,460.64v-21.9h4.44l10.26,13.48V438.74h4.76v21.9h-4.1l-10.61-13.92v13.92h-4.76Z" transform="translate(-130.03 -313.33)"/><path class="cls-1" d="M260.29,461a13.46,13.46,0,0,1-9.29-3.5l2.85-3.41a10.24,10.24,0,0,0,6.54,2.66,4.14,4.14,0,0,0,2.32-.56,1.78,1.78,0,0,0,.84-1.56,1.75,1.75,0,0,0-.88-1.52,13.52,13.52,0,0,0-3.54-1.27,25.45,25.45,0,0,1-3-.92,10.05,10.05,0,0,1-2.21-1.2,4.42,4.42,0,0,1-1.53-1.89,7,7,0,0,1-.48-2.74,6,6,0,0,1,2.14-4.79,8.25,8.25,0,0,1,5.52-1.81,12.62,12.62,0,0,1,8.13,2.78l-2.5,3.63a10.2,10.2,0,0,0-5.69-2.16,3.43,3.43,0,0,0-2.08.55,1.7,1.7,0,0,0-.74,1.42,1.73,1.73,0,0,0,.91,1.6,17.77,17.77,0,0,0,3.82,1.28,13.17,13.17,0,0,1,5.26,2.41,5.3,5.3,0,0,1,1.69,4.22,6.08,6.08,0,0,1-2.21,5A8.94,8.94,0,0,1,260.29,461Z" transform="translate(-130.03 -313.33)"/></g><g class="cls-2"><path d="M136.47,484.93a8.52,8.52,0,0,1-5.14-1.83l0.94-1.32a7.11,7.11,0,0,0,4.3,1.59,3,3,0,0,0,1.85-.55,1.76,1.76,0,0,0,.72-1.47,1.43,1.43,0,0,0-.78-1.3,10.32,10.32,0,0,0-2.32-.89q-0.94-.27-1.49-0.48a9.79,9.79,0,0,1-1.25-.61,2.62,2.62,0,0,1-1-1,3,3,0,0,1-.34-1.46,3.19,3.19,0,0,1,1.19-2.57,4.6,4.6,0,0,1,3-1,7.93,7.93,0,0,1,4.47,1.37l-0.84,1.4a6.71,6.71,0,0,0-3.68-1.2,2.75,2.75,0,0,0-1.74.52,1.62,1.62,0,0,0-.66,1.33,1.1,1.1,0,0,0,.19.63,2.1,2.1,0,0,0,.43.48,3.27,3.27,0,0,0,.76.41q0.52,0.22.83,0.31l1,0.31a15.24,15.24,0,0,1,1.47.5,8.34,8.34,0,0,1,1.23.65,2.69,2.69,0,0,1,1,1,3,3,0,0,1,.32,1.43,3.3,3.3,0,0,1-1.25,2.73A4.92,4.92,0,0,1,136.47,484.93Z" transform="translate(-130.03 -313.33)"/><path d="M151.51,479.23a4.51,4.51,0,0,0,1.43,3,4.24,4.24,0,0,0,2.94,1.12,5.26,5.26,0,0,0,3.92-1.75l1.15,1a6.61,6.61,0,0,1-5.12,2.33,6,6,0,0,1-4.41-1.82,6.38,6.38,0,0,1-1.79-4.68,6.62,6.62,0,0,1,1.71-4.61A5.5,5.5,0,0,1,155.6,472a5.22,5.22,0,0,1,4.23,1.88,7.12,7.12,0,0,1,1.56,4.71c0,0.24,0,.46,0,0.65h-9.85Zm0-1.49h8a5.22,5.22,0,0,0-1.19-3,3.47,3.47,0,0,0-2.77-1.19,3.63,3.63,0,0,0-2.71,1.18A5,5,0,0,0,151.51,477.74Z" transform="translate(-130.03 -313.33)"/><path d="M176.31,485a6,6,0,0,1-4.53-1.91,6.63,6.63,0,0,1,0-9.16,6,6,0,0,1,4.53-1.91,6.62,6.62,0,0,1,5,2.21l-1.18,1.25a5.18,5.18,0,0,0-3.82-1.83,4.11,4.11,0,0,0-3.16,1.41,4.93,4.93,0,0,0-1.29,3.45,4.84,4.84,0,0,0,1.31,3.43,4.26,4.26,0,0,0,3.26,1.41,5.12,5.12,0,0,0,3.75-1.88l1.23,1.13A6.62,6.62,0,0,1,176.31,485Z" transform="translate(-130.03 -313.33)"/><path d="M195.07,485a4.54,4.54,0,0,1-3.48-1.36,5.08,5.08,0,0,1-1.27-3.62v-7.72h1.85v7.26a4,4,0,0,0,.9,2.75,3.24,3.24,0,0,0,2.53,1,3.57,3.57,0,0,0,2.67-1.08,3.86,3.86,0,0,0,1.06-2.81v-7.12h1.83v12.43h-1.83v-2.17A4.75,4.75,0,0,1,195.07,485Z" transform="translate(-130.03 -313.33)"/><path d="M211.39,484.69V472.25h1.85v3.25a6.28,6.28,0,0,1,2-2.57,4.65,4.65,0,0,1,3-.89v2h-0.14a4.62,4.62,0,0,0-3.53,1.49,5.93,5.93,0,0,0-1.39,4.21v5h-1.85Z" transform="translate(-130.03 -313.33)"/><path d="M227.24,469.54v-2h2.11v2h-2.11Zm0.12,15.15V472.25h1.85v12.43h-1.85Z" transform="translate(-130.03 -313.33)"/><path d="M243.75,484.91a3.68,3.68,0,0,1-2.56-.85,3.4,3.4,0,0,1-.95-2.66v-7.5h-1.73v-1.64h1.73V468.5h1.85v3.75H246v1.64h-3.94v7.26a1.84,1.84,0,0,0,2.09,2.07,4.07,4.07,0,0,0,1.8-.43v1.59A4.74,4.74,0,0,1,243.75,484.91Z" transform="translate(-130.03 -313.33)"/><path d="M257.3,488.61a6,6,0,0,1-2.64-.62l0.62-1.47a4.2,4.2,0,0,0,1.95.46,2,2,0,0,0,1.42-.52,5.22,5.22,0,0,0,1.13-1.82l-5.65-12.39h2l4.52,10.37,4-10.37h2l-5.21,12.84a7,7,0,0,1-1.75,2.71A3.58,3.58,0,0,1,257.3,488.61Z" transform="translate(-130.03 -313.33)"/></g></svg>