<svg id="Слой_1" data-name="Слой 1" xmlns="http://www.w3.org/2000/svg" viewBox="0 0 82.19 113.25"><defs><style>.cls-1{fill:#fff;}</style></defs><title>FireW</title><path class="cls-1" d="M-131.22,14.18C-157,14-168.94-6.93-162.7-24.56c2.26-6.38,2.49-12.29-3.3-17.77,8.82,3,11.64,7.56,12.13,18.81,3.23-2.79,4.49-7.89,2.41-13.24a60.08,60.08,0,0,0-6.07-10.8,16.36,16.36,0,0,1,3.5-22.1c-0.17,1.57-.25,2.82-0.43,4-0.85,5.61,1,10.05,5.49,13.56,4.17,3.23,8.12,6.73,12.95,10.76-0.47-3.63-.44-7.06-1.43-10.17a76.5,76.5,0,0,0-5.3-12.33c-6.25-11.9-.29-25.81,13.32-29.79-4.89,14.66,2,25.14,11.92,34.49,7.6,7.14,12.79,15.33,12.09,26.31,4.83-11.63,2.34-22.59-3.78-33.59,16.7,10,21.83,29.34,14.54,53l1.09,0.65,9.2-16.24c3.79,16.47-11.28,38.29-29.3,41.79,9.31-9.1,9-21.32-.38-28.83l1.46,12.13c-2.71-3.82-5.06-7.72-8-11.1-3.74-4.31-6.46-8.76-4.84-15-6.94,3.15-8.61,7.69-5.82,13.85a38.07,38.07,0,0,1,2.82,9.3c-3.73-3.15-9.63-4.45-8.45-11.27-3.4,3.42-3.83,5.74-1.23,9.5,3,4.34,4,8.06.85,13.21C-140.11,9.3-135.06,11.38-131.22,14.18Z" transform="translate(166 99.08)"/><path class="cls-1" d="M-117.56-72.66c-6.17-7.3-7.66-21.9.71-26.42C-118.26-90.21-109.52-81.52-117.56-72.66Z" transform="translate(166 99.08)"/><path class="cls-1" d="M-106-67.65c-5.78-4.51-1.44-9.5-.88-14.37C-101.95-77.77-101.65-73.1-106-67.65Z" transform="translate(166 99.08)"/></svg>