<svg id="Слой_1" data-name="Слой 1" xmlns="http://www.w3.org/2000/svg" viewBox="0 0 137.84 131.93"><defs><style>.cls-1{fill:#fff;}</style></defs><title>GasW</title><path class="cls-1" d="M-32.92,28.62h53.5l0.63-7H32.83V82H21.27l-0.69-5.68h-53.5V28.62Z" transform="translate(32.92 49.85)"/><path class="cls-1" d="M51.31,76.07l-0.46,6H39.12V21.67H50.77l0.59,6.87h53.55V76.07H51.31Z" transform="translate(32.92 49.85)"/><path class="cls-1" d="M24.72-49.85C14.92-37.66,19-27,26-16.53c3.31,5,7,9.68,10.42,14.62,3.18,4.67,2.78,9.3-1.49,15C35.57,2.25,27.37-1.79,22.35-8c-3.42-4.25-7-8.53-9.51-13.33C7-32.53,12.23-45.49,24.72-49.85Z" transform="translate(32.92 49.85)"/><path class="cls-1" d="M41.17-43.26c-6.9,7.34-5.92,15-1.48,23,2.5,4.49,4.88,9,7.22,13.62,2.17,4.24,1.39,7.94-2.75,11.61,1.63-7.12-2.36-11.51-5.82-16.12-2.19-2.91-4.67-5.67-6.42-8.83C26.23-30.34,29.45-38.6,41.17-43.26Z" transform="translate(32.92 49.85)"/></svg>