<svg id="Слой_1" data-name="Слой 1" xmlns="http://www.w3.org/2000/svg" viewBox="0 0 93.3 93.9"><defs><style>.cls-1{fill:#fff;}</style></defs><title>Thief3W</title><path class="cls-1" d="M422,293.51c10.66,0,21.33.11,32-.07,3.27-.05,4.61.89,5.21,4.28,4.4,24.94-13.91,48.12-37.94,47.44-25.54-.72-41.45-25.73-36-48.86,0.28-1.2,2.76-2.64,4.25-2.67C400.32,293.4,411.15,293.51,422,293.51ZM417.66,312c-0.66-1.91-.74-4.25-1.81-4.86-5.35-3.06-11-5.67-17-8.71V312h18.81Zm8.29-1.26,1.49,1.17h17.65V298.43c-5.38,2.69-10.33,4.94-15,7.65C428.36,307.07,427.3,309.17,425.94,310.76Zm-5.41,26.06c6.29-.88,10.7-3,10.61-5.8s-4.81-5.07-10-4.52c-3.3.35-8.13,0.26-7.89,4.67C413.39,333.17,418,334.94,420.53,336.81Z" transform="translate(-375.25 -251.27)"/><path class="cls-1" d="M375.25,283.87v-9c3.76,0,7.36-.22,10.93.06,3.37,0.26,5.08-.78,6-4.21,1.45-5.45,3.59-10.7,5.22-16.11,0.74-2.45,1.92-3.39,4.58-3.36q20,0.2,39.93,0c2.58,0,3.87.76,4.62,3.29,1.7,5.73,3.5,11.45,5.74,17a6.44,6.44,0,0,0,4.48,3.17c3.76,0.47,7.61.15,11.8,0.15v9h-93.3Z" transform="translate(-375.25 -251.27)"/></svg>