<svg id="Слой_1" data-name="Слой 1" xmlns="http://www.w3.org/2000/svg" viewBox="0 0 93.91 119.39"><defs><style>.cls-1{fill:#fff;}</style></defs><title>WaterW</title><path class="cls-1" d="M70.08-16.67v29H24.3v-29H70.08Z" transform="translate(10.31 44.76)"/><path class="cls-1" d="M21.84-9.72V5.74C20,5.83,18.38,6,16.76,6c-6.54.1-9.2,2-9.71,8.62C6.42,22.71,6.59,30.87,6.38,39c0,1.3-.19,2.61-0.33,4.34H-10.31c0.61-11.46.09-22.86,2.06-33.82C-5.56-5.49,5.8-12.14,21.84-9.72Z" transform="translate(10.31 44.76)"/><path class="cls-1" d="M50.37-36.8v16.87l-6.29.3V-36.8H30.75c-3.09,0-6.58.07-6.55-4.15,0-4,3.37-3.81,6.28-3.81,11,0,22,0,33,0,3,0,6.64-.45,6.47,4-0.16,4.3-3.77,3.87-6.76,3.9C59.16-36.77,55.18-36.8,50.37-36.8Z" transform="translate(10.31 44.76)"/><path class="cls-1" d="M0.63,48.83c1.8,6.29,4.1,12.49,5.22,18.89,0.81,4.68-2.12,7-6.86,6.9-4.57-.1-7.47-2.76-6.54-7.35C-6.28,61.06-4,55.05-2.1,49Z" transform="translate(10.31 44.76)"/><path class="cls-1" d="M83.61,6.31H73.35V-9.89H83.61V6.31Z" transform="translate(10.31 44.76)"/></svg>