<svg id="Слой_1" data-name="Слой 1" xmlns="http://www.w3.org/2000/svg" viewBox="0 0 129 99.02"><defs><style>.cls-1{fill:#fff;stroke:#fff;}</style></defs><title>SCHIT</title><path class="cls-1" d="M358,284.28h24.4c0-4.67-.2-8.62.1-12.53a6.2,6.2,0,0,1,2.22-4.28c6.86-4.36,14.19-8,20.85-12.64,10.73-7.46,20.94-7.72,31.83-.27,7,4.77,14.64,8.48,21.84,12.93a6.17,6.17,0,0,1,2.21,4.28c0.31,3.79.1,7.62,0.1,12.51H486v1H461.45l0,1.7h21.74v1.43H461.52l-0.06,1.4h19.63l0,1.65H460.65V293h18.72v1.43H460.48L460.43,296h17.52v1.62H459.52v1.45h16.6v1.65c-4.18,0-8.38.29-12.52-.08-3.87-.34-5.5,1-6.52,4.77-4.86,17.7-15.47,31.05-31.22,40.45-2.81,1.68-5,1.59-7.76-.05-15.64-9.27-26.18-22.52-31-40-1.2-4.33-3.18-5.47-7.23-5.16-3.64.28-7.32,0-11,0a12.65,12.65,0,0,1-2.34-1.13h18l0.05-1.54H366.3l0-1.62h17.33V294.8H364.74l0-1.43h18.72l0-1.56H362.77v-1.62h19.76l0-1.56H360.79l0-1.66h21.76l0-1.69H358v-1Zm102-14.07c-8.32-5-16.49-9.54-24.16-14.78-9.81-6.7-19-6.32-28.68.24-6.45,4.4-13.16,8.46-20,12.21-2.49,1.36-3.38,2.68-3.16,5.33,0.45,5.31.47,10.66,1.1,15.94,2.77,23.37,12.43,42.61,33.32,55.09,2.64,1.58,4.62,1.58,7.23,0,12.79-7.81,22.24-18.4,27.74-32.41C458.68,298.26,460.08,284.1,460,270.21Z" transform="translate(-357.5 -248.6)"/></svg>