<svg id="Слой_1" data-name="Слой 1" xmlns="http://www.w3.org/2000/svg" viewBox="0 0 128 89.52"><defs><style>.cls-1{fill:#fff;}</style></defs><title>2icon</title><path class="cls-1" d="M358,285.28c5.81,0,11.64.23,17.42-.15a6.34,6.34,0,0,0,4.53-3.08c8.09-18.17,21.9-28.44,41.78-28.54,20.12-.1,34.08,10.18,42.29,28.53a6.36,6.36,0,0,0,4.55,3.07c5.79,0.38,11.61.16,17.42,0.17v1c-2.58,3.53-5.23,7-7.69,10.64a3,3,0,0,0,0,2.72c2.45,3.62,5.1,7.11,7.68,10.64v1c-5.83,0-11.66.11-17.49-.06-2.57-.08-3.69.86-4.7,3.24C456,332.81,442,343,422,343s-34-10.19-41.83-28.52c-1.15-2.69-2.55-3.36-5.2-3.28-5.66.16-11.32,0.06-17,.06v-1c2.57-3.54,5.21-7,7.66-10.65a3,3,0,0,0,0-2.71c-2.45-3.62-5.09-7.1-7.67-10.64v-1Zm99.95,12.93a36,36,0,1,0-35.35,36C442,334,458.09,317.56,457.95,298.21Zm4.9-13.38c-5.3-19.1-24.38-31.38-45.64-29.61-16.67,1.38-34.36,16.14-35.68,29.74,3.73,1.27,5.47-.45,7.22-3.75,7.09-13.35,18.44-20.42,33.55-20.3,14.89,0.12,26.09,7.18,33,20.42C457.05,284.77,458.91,286.16,462.84,284.83Zm-81.49,26.86c2.84,15.77,21.05,29.49,39.6,29.83,19.53,0.37,38.22-13,41.74-29.81-3.54-1.21-5.47-.18-7.31,3.4-6.9,13.46-18.31,20.6-33.36,20.62s-26.46-7.13-33.39-20.58C386.82,311.63,384.93,310.45,381.35,311.69Zm3.37-6.64V291.56H363.53c5.67,4.74,4.52,9.12.26,13.87,7.06,0,12.84,0,18.62,0A14.8,14.8,0,0,0,384.72,305.05Zm95.45,0c-4.88-4.59-4.77-9,.29-13.95H459.28v14.33c5.58,0,11,0,16.5,0C476.88,305.42,478,305.25,480.18,305.06ZM361.72,287.28c3.78,2.95,21.12,2.89,24.32,0H361.72Zm96.57,0c4.45,3,20.82,2.59,23.89,0H458.29Zm-72.73,22,0-1.79a221.55,221.55,0,0,0-23.31-.08v1.87h23.29ZM458.38,308l0,1.27h23.36l0-1.27H458.38Z" transform="translate(-358 -253.51)"/><path class="cls-1" d="M358,286.28c2.58,3.53,5.22,7,7.67,10.64a3,3,0,0,1,0,2.71c-2.45,3.62-5.09,7.11-7.66,10.65Q358,298.28,358,286.28Z" transform="translate(-358 -253.51)"/><path class="cls-1" d="M486,310.28c-2.58-3.53-5.22-7-7.68-10.64a3,3,0,0,1,0-2.72c2.46-3.62,5.1-7.11,7.69-10.64v24Z" transform="translate(-358 -253.51)"/></svg>