<svg id="Слой_1" data-name="Слой 1" xmlns="http://www.w3.org/2000/svg" viewBox="0 0 122 74.03"><defs><style>.cls-1{fill:#fff;stroke:#fff;stroke-width:2px;}</style></defs><title>CAMS</title><path class="cls-1" d="M362,266.28c2.29-3,5.17-4,9-4,20.63,0.18,41.26.08,61.89,0.09,7.18,0,9,1.86,9,9.21q0,26.7,0,53.4c0,7.33-1.85,9.23-9,9.24-20.63,0-41.26-.09-61.89.09-3.86,0-6.73-1.08-9-4v-64Zm40.11,64.06c10.33,0,20.66-.12,31,0.06,3.5,0.06,5.09-.67,5-4.64-0.18-18.32-.15-36.65,0-55,0-3.41-.94-4.66-4.52-4.64q-31.74.2-63.47,0c-3.32,0-4.28,1.17-4.26,4.37,0.11,18.49.14,37,0,55.48,0,3.72,1.5,4.43,4.77,4.38C381.12,330.24,391.62,330.33,402.11,330.34Z" transform="translate(-361 -261.27)"/><path class="cls-1" d="M482,329.28c-1.68-.12-3.59.24-5-0.44-9.27-4.45-18.51-9-27.57-13.86a7.33,7.33,0,0,1-3.21-5.2,194.08,194.08,0,0,1,0-20.92,7.35,7.35,0,0,1,3.26-5.18c9-4.9,18.26-9.48,27.51-14,1.41-.68,3.32-0.31,5-0.43v60Zm-4.18-55a3.57,3.57,0,0,0-1.21,0c-6,3-11.69,6.51-17.89,8.77-7.22,2.63-8.74,7-9.18,14.45-0.62,10.53,2.4,16.68,12.57,19.88,5.36,1.69,10.23,4.91,15.71,7.63V274.23Z" transform="translate(-361 -261.27)"/></svg>