<svg id="Слой_1" data-name="Слой 1" xmlns="http://www.w3.org/2000/svg" viewBox="0 0 117.73 128"><defs><style>.cls-1{fill:#fff;}</style></defs><title>Ikosaeder-128</title><path class="cls-1" d="M416.82,233.64h4a46.19,46.19,0,0,0,4.26,3.11c15.72,9,31.4,18.12,47.25,26.93,3.8,2.11,5.43,4.49,5.35,9-0.28,16.48-.3,33,0,49.44,0.09,4.88-1.66,7.43-5.81,9.72-15.87,8.76-31.54,17.88-47.26,26.91a35.13,35.13,0,0,0-3.79,2.9h-4a45.92,45.92,0,0,0-4.25-3.12c-15.86-9.12-31.71-18.28-47.68-27.21-3.46-1.93-5-4.07-4.93-8.2q0.36-25.48,0-51c-0.06-4.12,1.44-6.29,4.9-8.22,16-8.92,31.82-18.07,47.69-27.19A47.19,47.19,0,0,0,416.82,233.64Zm2,93.12,24.6-44.87H394.15ZM414,329.13l-24.57-44.64-22.25,40.19Zm56.45-4.46L448.15,284.5l-24.51,44.69ZM418.8,241l-24,35h48.12ZM452,280.33l19.13,34.33,0.72-.38V272.41ZM366,272.49v41.65l0.78,0.17,18.79-34Zm49.63,81.56V334.64L377.25,331l-0.32.91Zm45.07-22.14-0.5-.88L422,334.74v19.35Zm7.92-64.06-39.12-22.31-0.56.81,20.2,29.32Zm-60-21.51-0.79-.71L369,267.88l19.53,7.78Z" transform="translate(-359.96 -233.64)"/></svg>