<svg id="Слой_1" data-name="Слой 1" xmlns="http://www.w3.org/2000/svg" viewBox="0 0 392.1 65.57"><defs><style>.cls-1{fill:#feb600;}</style></defs><title>ZVEZDIotzivi</title><path class="cls-1" d="M382,665.61v-0.16a1.56,1.56,0,0,1,1.42-.36h19.1c1.45,0,2.9,0,4.35,0a1.34,1.34,0,0,0,1.62-1.2q3.54-11.09,7.18-22.15a1.75,1.75,0,0,1,.66-1.16c0.81-.09,1,0.53,1.13,1.09,0.77,2.58,1.66,5.11,2.48,7.67,1.58,4.91,3.18,9.81,4.75,14.73a1.19,1.19,0,0,0,1.49,1c3.49,0,7,0,10.48,0,4.35,0,8.71,0,13.06,0a1.47,1.47,0,0,1,1.35.32,1.25,1.25,0,0,1-.8,1.18c-2.94,2.17-5.89,4.31-8.85,6.44-3.39,2.45-6.75,5-10.16,7.38-1,.69-1,0.71-0.66,1.86s0.79,2.45,1.2,3.68c2,6.14,4,12.31,6,18.45,0.18,0.55.56,1.16,0,1.73h-0.16a25.39,25.39,0,0,1-4.8-3.21c-4.75-3.41-9.47-6.87-14.2-10.32-0.43-.32-0.87-0.63-1.29-1a1.16,1.16,0,0,0-1.6,0c-1.76,1.28-3.51,2.56-5.27,3.85-4.6,3.35-9.21,6.68-13.81,10-0.45.33-1,.83-1.63,0.3a9.38,9.38,0,0,1,.82-3.17q1.78-5.48,3.56-11c1-3.09,2-6.17,3-9.27,0.39-1.2.33-1.32-.7-2.07-6.33-4.58-12.67-9.14-19-13.76A4.81,4.81,0,0,1,382,665.61Z" transform="translate(-382 -640.55)"/><path class="cls-1" d="M462.75,665.61v-0.16a1.56,1.56,0,0,1,1.42-.36h19.1c1.45,0,2.9,0,4.35,0a1.34,1.34,0,0,0,1.62-1.2q3.54-11.09,7.18-22.15a1.75,1.75,0,0,1,.66-1.16c0.81-.09,1,0.53,1.13,1.09,0.77,2.58,1.66,5.11,2.48,7.67,1.58,4.91,3.18,9.81,4.75,14.73a1.19,1.19,0,0,0,1.49,1c3.49,0,7,0,10.48,0,4.35,0,8.71,0,13.06,0a1.47,1.47,0,0,1,1.35.32,1.25,1.25,0,0,1-.8,1.18c-2.94,2.17-5.89,4.31-8.85,6.44-3.39,2.45-6.75,5-10.16,7.38-1,.69-1,0.71-0.66,1.86s0.79,2.45,1.2,3.68c2,6.14,4,12.31,6,18.45,0.18,0.55.56,1.16,0,1.73h-0.16a25.39,25.39,0,0,1-4.8-3.21c-4.75-3.41-9.47-6.87-14.2-10.32-0.43-.32-0.87-0.63-1.29-1a1.16,1.16,0,0,0-1.6,0c-1.76,1.28-3.51,2.56-5.27,3.85-4.6,3.35-9.21,6.68-13.81,10-0.45.33-1,.83-1.63,0.3a9.38,9.38,0,0,1,.82-3.17q1.78-5.48,3.56-11c1-3.09,2-6.17,3-9.27,0.39-1.2.33-1.32-.7-2.07-6.33-4.58-12.67-9.14-19-13.76A4.81,4.81,0,0,1,462.75,665.61Z" transform="translate(-382 -640.55)"/><path class="cls-1" d="M543.5,665.61v-0.16a1.56,1.56,0,0,1,1.42-.36H564c1.45,0,2.9,0,4.35,0a1.34,1.34,0,0,0,1.62-1.2q3.54-11.09,7.18-22.15a1.75,1.75,0,0,1,.66-1.16c0.81-.09,1,0.53,1.13,1.09,0.77,2.58,1.66,5.11,2.48,7.67,1.58,4.91,3.18,9.81,4.75,14.73a1.19,1.19,0,0,0,1.49,1c3.49,0,7,0,10.48,0,4.35,0,8.71,0,13.06,0a1.47,1.47,0,0,1,1.35.32,1.25,1.25,0,0,1-.8,1.18c-2.94,2.17-5.89,4.31-8.85,6.44-3.39,2.45-6.75,5-10.16,7.38-1,.69-1,0.71-0.66,1.86s0.79,2.45,1.2,3.68c2,6.14,4,12.31,6,18.45,0.18,0.55.56,1.16,0,1.73h-0.16a25.39,25.39,0,0,1-4.8-3.21c-4.75-3.41-9.47-6.87-14.2-10.32-0.43-.32-0.87-0.63-1.29-1a1.16,1.16,0,0,0-1.6,0c-1.76,1.28-3.51,2.56-5.27,3.85-4.6,3.35-9.21,6.68-13.81,10-0.45.33-1,.83-1.63,0.3a9.38,9.38,0,0,1,.82-3.17q1.78-5.48,3.56-11c1-3.09,2-6.17,3-9.27,0.39-1.2.33-1.32-.7-2.07-6.33-4.58-12.67-9.14-19-13.76A4.81,4.81,0,0,1,543.5,665.61Z" transform="translate(-382 -640.55)"/><path class="cls-1" d="M624.25,665.61v-0.16a1.56,1.56,0,0,1,1.42-.36h19.1c1.45,0,2.9,0,4.35,0a1.34,1.34,0,0,0,1.62-1.2q3.54-11.09,7.18-22.15a1.75,1.75,0,0,1,.66-1.16c0.81-.09,1,0.53,1.13,1.09,0.77,2.58,1.66,5.11,2.48,7.67,1.58,4.91,3.18,9.81,4.75,14.73a1.19,1.19,0,0,0,1.49,1c3.49,0,7,0,10.48,0,4.35,0,8.71,0,13.06,0a1.47,1.47,0,0,1,1.35.32,1.25,1.25,0,0,1-.8,1.18c-2.94,2.17-5.89,4.31-8.85,6.44-3.39,2.45-6.75,5-10.16,7.38-1,.69-1,0.71-0.66,1.86s0.79,2.45,1.2,3.68c2,6.14,4,12.31,6,18.45,0.18,0.55.56,1.16,0,1.73h-0.16a25.39,25.39,0,0,1-4.8-3.21c-4.75-3.41-9.47-6.87-14.2-10.32-0.43-.32-0.87-0.63-1.29-1a1.16,1.16,0,0,0-1.6,0c-1.76,1.28-3.51,2.56-5.27,3.85-4.6,3.35-9.21,6.68-13.81,10-0.45.33-1,.83-1.63,0.3a9.38,9.38,0,0,1,.82-3.17q1.78-5.48,3.56-11c1-3.09,2-6.17,3-9.27,0.39-1.2.33-1.32-.7-2.07-6.33-4.58-12.67-9.14-19-13.76A4.81,4.81,0,0,1,624.25,665.61Z" transform="translate(-382 -640.55)"/><path class="cls-1" d="M705,665.61v-0.16a1.56,1.56,0,0,1,1.42-.36h19.1c1.45,0,2.9,0,4.35,0a1.34,1.34,0,0,0,1.62-1.2q3.54-11.09,7.18-22.15a1.75,1.75,0,0,1,.66-1.16c0.81-.09,1,0.53,1.13,1.09,0.77,2.58,1.66,5.11,2.48,7.67,1.58,4.91,3.18,9.81,4.75,14.73a1.19,1.19,0,0,0,1.49,1c3.49,0,7,0,10.48,0,4.35,0,8.71,0,13.06,0a1.47,1.47,0,0,1,1.35.32,1.25,1.25,0,0,1-.8,1.18c-2.94,2.17-5.89,4.31-8.85,6.44-3.39,2.45-6.75,5-10.16,7.38-1,.69-1,0.71-0.66,1.86s0.79,2.45,1.2,3.68c2,6.14,4,12.31,6,18.45,0.18,0.55.56,1.16,0,1.73h-0.16a25.39,25.39,0,0,1-4.8-3.21c-4.75-3.41-9.47-6.87-14.2-10.32-0.43-.32-0.87-0.63-1.29-1a1.16,1.16,0,0,0-1.6,0c-1.76,1.28-3.51,2.56-5.27,3.85-4.6,3.35-9.21,6.68-13.81,10-0.45.33-1,.83-1.63,0.3a9.38,9.38,0,0,1,.82-3.17q1.78-5.48,3.56-11c1-3.09,2-6.17,3-9.27,0.39-1.2.33-1.32-.7-2.07-6.33-4.58-12.67-9.14-19-13.76A4.81,4.81,0,0,1,705,665.61Z" transform="translate(-382 -640.55)"/></svg>